<svg width="330" height="252" viewBox="0 0 330 252" fill="none" xmlns="http://www.w3.org/2000/svg">
<path d="M109.191 110.36H90.9506V89.4H66.4706V110.36H36.3906L85.3506 43H58.1506L5.35063 114.04V131.48H65.6706V155H90.9506V131.48H109.191V110.36ZM164.943 156.92C192.623 156.92 212.943 135.96 212.943 99C212.943 62.04 192.623 41.08 164.943 41.08C137.423 41.08 116.943 62.04 116.943 99C116.943 135.96 137.423 156.92 164.943 156.92ZM164.943 135C152.143 135 143.183 124.44 143.183 99C143.183 73.56 152.143 63 164.943 63C177.903 63 186.863 73.56 186.863 99C186.863 124.44 177.903 135 164.943 135ZM328.097 110.36H309.857V89.4H285.377V110.36H255.297L304.257 43H277.057L224.257 114.04V131.48H284.577V155H309.857V131.48H328.097V110.36Z" fill="#333333" fill-opacity="0.1"/>
<path d="M109.191 127.36H90.9506V106.4H66.4706V127.36H36.3906L85.3506 60H58.1506L5.35063 131.04V148.48H65.6706V172H90.9506V148.48H109.191V127.36ZM164.943 173.92C192.623 173.92 212.943 152.96 212.943 116C212.943 79.04 192.623 58.08 164.943 58.08C137.423 58.08 116.943 79.04 116.943 116C116.943 152.96 137.423 173.92 164.943 173.92ZM164.943 152C152.143 152 143.183 141.44 143.183 116C143.183 90.56 152.143 80 164.943 80C177.903 80 186.863 90.56 186.863 116C186.863 141.44 177.903 152 164.943 152ZM328.097 127.36H309.857V106.4H285.377V127.36H255.297L304.257 60H277.057L224.257 131.04V148.48H284.577V172H309.857V148.48H328.097V127.36Z" fill="#333333" fill-opacity="0.1"/>
<path d="M109.191 147.36H90.9506V126.4H66.4706V147.36H36.3906L85.3506 80H58.1506L5.35063 151.04V168.48H65.6706V192H90.9506V168.48H109.191V147.36ZM164.943 193.92C192.623 193.92 212.943 172.96 212.943 136C212.943 99.04 192.623 78.08 164.943 78.08C137.423 78.08 116.943 99.04 116.943 136C116.943 172.96 137.423 193.92 164.943 193.92ZM164.943 172C152.143 172 143.183 161.44 143.183 136C143.183 110.56 152.143 100 164.943 100C177.903 100 186.863 110.56 186.863 136C186.863 161.44 177.903 172 164.943 172ZM328.097 147.36H309.857V126.4H285.377V147.36H255.297L304.257 80H277.057L224.257 151.04V168.48H284.577V192H309.857V168.48H328.097V147.36Z" fill="#333333" fill-opacity="0.1"/>
<path d="M109.191 167.36H90.9506V146.4H66.4706V167.36H36.3906L85.3506 100H58.1506L5.35063 171.04V188.48H65.6706V212H90.9506V188.48H109.191V167.36ZM164.943 213.92C192.623 213.92 212.943 192.96 212.943 156C212.943 119.04 192.623 98.08 164.943 98.08C137.423 98.08 116.943 119.04 116.943 156C116.943 192.96 137.423 213.92 164.943 213.92ZM164.943 192C152.143 192 143.183 181.44 143.183 156C143.183 130.56 152.143 120 164.943 120C177.903 120 186.863 130.56 186.863 156C186.863 181.44 177.903 192 164.943 192ZM328.097 167.36H309.857V146.4H285.377V167.36H255.297L304.257 100H277.057L224.257 171.04V188.48H284.577V212H309.857V188.48H328.097V167.36Z" fill="#333333"/>
</svg>
