<svg width="24" height="24" viewBox="0 0 24 24" fill="none" xmlns="http://www.w3.org/2000/svg">
<path d="M11.4737 18.8095C11.4737 19.9619 11.7895 21.0305 12.3263 21.9524H4.10526C2.93684 21.9524 2 21.02 2 19.8571V3.09524C2 2.53955 2.2218 2.00661 2.61662 1.61368C3.01143 1.22075 3.54691 1 4.10526 1H5.15789V8.33333L7.78947 6.76191L10.4211 8.33333V1H16.7368C17.2952 1 17.8307 1.22075 18.2255 1.61368C18.6203 2.00661 18.8421 2.53955 18.8421 3.09524V12.6181C18.4947 12.5657 18.1474 12.5238 17.7895 12.5238C14.3053 12.5238 11.4737 15.3419 11.4737 18.8095ZM18.8421 17.7619V14.619H16.7368V17.7619H13.5789V19.8571H16.7368V23H18.8421V19.8571H22V17.7619H18.8421Z" fill="current"/>
</svg>
