<svg width="19" height="12" viewBox="0 0 19 12" fill="none" xmlns="http://www.w3.org/2000/svg">
<path d="M9.50005 11.3342C9.28338 11.3342 9.07322 11.2936 8.86955 11.2123C8.66588 11.1311 8.49688 11.0227 8.36255 10.8873L0.887548 3.4123C0.589632 3.11439 0.440674 2.73522 0.440674 2.2748C0.440674 1.81439 0.589632 1.43522 0.887548 1.1373C1.18546 0.839387 1.56463 0.69043 2.02505 0.69043C2.48547 0.69043 2.86463 0.839387 3.16255 1.1373L9.50005 7.4748L15.8375 1.1373C16.1355 0.839387 16.5146 0.69043 16.975 0.69043C17.4355 0.69043 17.8146 0.839387 18.1125 1.1373C18.4105 1.43522 18.5594 1.81439 18.5594 2.2748C18.5594 2.73522 18.4105 3.11439 18.1125 3.4123L10.6375 10.8873C10.475 11.0498 10.299 11.1652 10.1094 11.2334C9.91984 11.3017 9.71671 11.3353 9.50005 11.3342Z" fill="#333333"/>
</svg>
