<svg width="24" height="24" viewBox="0 0 24 24" fill="none" xmlns="http://www.w3.org/2000/svg">
<path d="M4.5 23C3.8125 23 3.22375 22.7536 2.73375 22.2608C2.24375 21.768 1.99917 21.1763 2 20.4857V9.17143C2 8.77333 2.08875 8.39619 2.26625 8.04C2.44375 7.68381 2.68834 7.39047 3 7.16L10.5 1.50286C10.7292 1.33524 10.9687 1.20952 11.2187 1.12571C11.4687 1.0419 11.7292 1 12 1C12.2708 1 12.5312 1.0419 12.7812 1.12571C13.0312 1.20952 13.2708 1.33524 13.5 1.50286L21 7.16C21.3125 7.39047 21.5575 7.68381 21.735 8.04C21.9125 8.39619 22.0008 8.77333 22 9.17143V20.4857C22 21.1771 21.755 21.7693 21.265 22.2621C20.775 22.7549 20.1867 23.0008 19.5 23H14.5V14.2H9.5V23H4.5Z" fill="current"/>
</svg>
