<svg width="24" height="23" viewBox="0 0 24 23" fill="none" xmlns="http://www.w3.org/2000/svg">
<path d="M14.4828 19.7C15.4437 19.7 15.9514 20.8264 15.3104 21.5348C14.894 21.9962 14.3839 22.3652 13.8134 22.6177C13.2429 22.8703 12.6249 23.0005 12 23C11.3751 23.0005 10.7572 22.8703 10.1867 22.6177C9.61616 22.3652 9.10599 21.9962 8.6896 21.5348C8.0764 20.8572 8.51408 19.7979 9.3939 19.7077L9.51609 19.7011L14.4828 19.7ZM12 1C13.5086 1 14.7839 1.9933 15.1938 3.3551L15.2449 3.5432L15.2538 3.5905C16.4784 4.27459 17.5219 5.23621 18.2989 6.3966C19.0759 7.55698 19.5643 8.88313 19.724 10.2664L19.7551 10.5821L19.7762 10.9V14.1241L19.7995 14.2737C19.9516 15.0842 20.4046 15.809 21.0692 16.3054L21.2547 16.4341L21.4347 16.543C22.3901 17.0787 22.0568 18.4856 21.0159 18.5934L20.887 18.6H3.11299C1.97101 18.6 1.5722 17.0996 2.56533 16.543C2.9886 16.3058 3.35432 15.9798 3.63681 15.5877C3.9193 15.1957 4.11171 14.7472 4.20054 14.2737L4.22387 14.1164L4.22498 10.8494C4.29271 9.41267 4.71505 8.01427 5.45504 6.77661C6.19502 5.53896 7.23009 4.49977 8.46965 3.75L8.74514 3.5894L8.75625 3.5421C8.91339 2.88433 9.27053 2.29012 9.77947 1.83967C10.2884 1.38922 10.9246 1.10421 11.6023 1.0231L11.8045 1.0044L12 1Z" fill="current"/>
</svg>
