<svg width="24" height="24" viewBox="0 0 24 24" fill="none" xmlns="http://www.w3.org/2000/svg">
<path d="M20.1818 1H6.27273C5.40475 1 4.57231 1.35659 3.95856 1.99133C3.3448 2.62607 3 3.48696 3 4.38462V22.1538C3 22.3783 3.0862 22.5935 3.23964 22.7522C3.39308 22.9109 3.60119 23 3.81818 23H18.5455C18.7625 23 18.9706 22.9109 19.124 22.7522C19.2774 22.5935 19.3636 22.3783 19.3636 22.1538C19.3636 21.9294 19.2774 21.7142 19.124 21.5555C18.9706 21.3968 18.7625 21.3077 18.5455 21.3077H4.63636C4.63636 20.8589 4.80877 20.4284 5.11564 20.111C5.42252 19.7937 5.83874 19.6154 6.27273 19.6154H20.1818C20.3988 19.6154 20.6069 19.5262 20.7604 19.3676C20.9138 19.2089 21 18.9936 21 18.7692V1.84615C21 1.62174 20.9138 1.40652 20.7604 1.24783C20.6069 1.08915 20.3988 1 20.1818 1ZM17.7273 11.1538L15.1081 9.12308C15.0373 9.06815 14.9511 9.03846 14.8626 9.03846C14.7741 9.03846 14.688 9.06815 14.6172 9.12308L12 11.1538V2.69231H17.7273V11.1538Z" fill="current"/>
</svg>
