<svg width="24" height="24" viewBox="0 0 24 24" fill="none" xmlns="http://www.w3.org/2000/svg">
<path d="M21.8974 20.6201C21.8299 20.7356 21.7327 20.8315 21.6158 20.8982C21.4988 20.9649 21.3661 21 21.231 21H2.76848C2.63352 20.9999 2.50096 20.9647 2.38412 20.8979C2.26729 20.8312 2.17029 20.7352 2.10287 20.6197C2.03544 20.5042 1.99997 20.3732 2 20.2399C2.00003 20.1066 2.03558 19.9756 2.10306 19.8602C3.56757 17.3591 5.82442 15.5658 8.45822 14.7157C7.15542 13.9495 6.14323 12.7822 5.57709 11.3928C5.01094 10.0035 4.92215 8.46893 5.32434 7.02489C5.72653 5.58085 6.59746 4.30715 7.8034 3.39939C9.00934 2.49163 10.4836 2 11.9998 2C13.5159 2 14.9902 2.49163 16.1961 3.39939C17.4021 4.30715 18.273 5.58085 18.6752 7.02489C19.0774 8.46893 18.9886 10.0035 18.4224 11.3928C17.8563 12.7822 16.8441 13.9495 15.5413 14.7157C18.1751 15.5658 20.432 17.3591 21.8965 19.8602C21.9641 19.9756 21.9998 20.1066 22 20.24C22.0002 20.3734 21.9648 20.5044 21.8974 20.6201Z" fill="current"/>
</svg>
