<svg width="141" height="252" viewBox="0 0 141 252" fill="none" xmlns="http://www.w3.org/2000/svg">
<path d="M35.72 116.12C35.72 112.387 36.3067 109.08 37.48 106.2C38.76 103.32 40.3067 100.76 42.12 98.52C44.04 96.28 46.0667 94.2 48.2 92.28C50.3333 90.36 52.3067 88.5467 54.12 86.84C56.04 85.0267 57.5867 83.16 58.76 81.24C60.04 79.32 60.68 77.1867 60.68 74.84C60.68 71 59.08 67.9067 55.88 65.56C52.7867 63.2133 48.6267 62.04 43.4 62.04C38.3867 62.04 33.9067 63.1067 29.96 65.24C26.0133 67.2667 22.76 70.1467 20.2 73.88L0.84 62.52C5.10667 56.0133 11.0267 50.84 18.6 47C26.1733 43.0533 35.3467 41.08 46.12 41.08C54.12 41.08 61.16 42.2533 67.24 44.6C73.32 46.84 78.0667 50.1467 81.48 54.52C85 58.8933 86.76 64.28 86.76 70.68C86.76 74.84 86.12 78.52 84.84 81.72C83.56 84.92 81.9067 87.6933 79.88 90.04C77.8533 92.3867 75.6667 94.5733 73.32 96.6C71.08 98.6267 68.9467 100.6 66.92 102.52C64.8933 104.44 63.1867 106.467 61.8 108.6C60.52 110.733 59.88 113.24 59.88 116.12H35.72ZM47.88 156.28C43.4 156.28 39.72 154.84 36.84 151.96C33.96 149.08 32.52 145.667 32.52 141.72C32.52 137.667 33.96 134.307 36.84 131.64C39.72 128.867 43.4 127.48 47.88 127.48C52.4667 127.48 56.1467 128.867 58.92 131.64C61.8 134.307 63.24 137.667 63.24 141.72C63.24 145.667 61.8 149.08 58.92 151.96C56.1467 154.84 52.4667 156.28 47.88 156.28ZM108.03 116.12L103.07 43H132.83L127.87 116.12H108.03ZM117.95 156.28C113.47 156.28 109.79 154.84 106.91 151.96C104.03 149.08 102.59 145.667 102.59 141.72C102.59 137.667 104.03 134.307 106.91 131.64C109.79 128.867 113.47 127.48 117.95 127.48C122.537 127.48 126.217 128.867 128.99 131.64C131.87 134.307 133.31 137.667 133.31 141.72C133.31 145.667 131.87 149.08 128.99 151.96C126.217 154.84 122.537 156.28 117.95 156.28Z" fill="#333333" fill-opacity="0.1"/>
<path d="M35.7981 133.12H59.9581C59.9581 116.16 86.8381 113.28 86.8381 87.68C86.8381 68.8 70.1981 58.08 46.1981 58.08C24.5981 58.08 9.55813 66.4 0.918125 79.52L20.2781 90.88C25.3981 83.52 33.2381 79.04 43.4781 79.04C53.8781 79.04 60.7581 84 60.7581 91.84C60.7581 105.76 35.7981 110.72 35.7981 133.12ZM47.9581 173.28C56.9181 173.28 63.3181 166.72 63.3181 158.72C63.3181 150.56 56.9181 144.48 47.9581 144.48C38.9981 144.48 32.5981 150.56 32.5981 158.72C32.5981 166.72 38.9981 173.28 47.9581 173.28ZM107.952 133.12H127.792L132.752 60H102.992L107.952 133.12ZM117.872 173.28C126.832 173.28 133.232 166.72 133.232 158.72C133.232 150.56 126.832 144.48 117.872 144.48C108.912 144.48 102.512 150.56 102.512 158.72C102.512 166.72 108.912 173.28 117.872 173.28Z" fill="#333333" fill-opacity="0.1"/>
<path d="M35.72 153.12C35.72 149.387 36.3067 146.08 37.48 143.2C38.76 140.32 40.3067 137.76 42.12 135.52C44.04 133.28 46.0667 131.2 48.2 129.28C50.3333 127.36 52.3067 125.547 54.12 123.84C56.04 122.027 57.5867 120.16 58.76 118.24C60.04 116.32 60.68 114.187 60.68 111.84C60.68 108 59.08 104.907 55.88 102.56C52.7867 100.213 48.6267 99.04 43.4 99.04C38.3867 99.04 33.9067 100.107 29.96 102.24C26.0133 104.267 22.76 107.147 20.2 110.88L0.84 99.52C5.10667 93.0133 11.0267 87.84 18.6 84C26.1733 80.0533 35.3467 78.08 46.12 78.08C54.12 78.08 61.16 79.2533 67.24 81.6C73.32 83.84 78.0667 87.1467 81.48 91.52C85 95.8933 86.76 101.28 86.76 107.68C86.76 111.84 86.12 115.52 84.84 118.72C83.56 121.92 81.9067 124.693 79.88 127.04C77.8533 129.387 75.6667 131.573 73.32 133.6C71.08 135.627 68.9467 137.6 66.92 139.52C64.8933 141.44 63.1867 143.467 61.8 145.6C60.52 147.733 59.88 150.24 59.88 153.12H35.72ZM47.88 193.28C43.4 193.28 39.72 191.84 36.84 188.96C33.96 186.08 32.52 182.667 32.52 178.72C32.52 174.667 33.96 171.307 36.84 168.64C39.72 165.867 43.4 164.48 47.88 164.48C52.4667 164.48 56.1467 165.867 58.92 168.64C61.8 171.307 63.24 174.667 63.24 178.72C63.24 182.667 61.8 186.08 58.92 188.96C56.1467 191.84 52.4667 193.28 47.88 193.28ZM108.03 153.12L103.07 80H132.83L127.87 153.12H108.03ZM117.95 193.28C113.47 193.28 109.79 191.84 106.91 188.96C104.03 186.08 102.59 182.667 102.59 178.72C102.59 174.667 104.03 171.307 106.91 168.64C109.79 165.867 113.47 164.48 117.95 164.48C122.537 164.48 126.217 165.867 128.99 168.64C131.87 171.307 133.31 174.667 133.31 178.72C133.31 182.667 131.87 186.08 128.99 188.96C126.217 191.84 122.537 193.28 117.95 193.28Z" fill="#333333" fill-opacity="0.1"/>
<path d="M35.72 173.12C35.72 169.387 36.3067 166.08 37.48 163.2C38.76 160.32 40.3067 157.76 42.12 155.52C44.04 153.28 46.0667 151.2 48.2 149.28C50.3333 147.36 52.3067 145.547 54.12 143.84C56.04 142.027 57.5867 140.16 58.76 138.24C60.04 136.32 60.68 134.187 60.68 131.84C60.68 128 59.08 124.907 55.88 122.56C52.7867 120.213 48.6267 119.04 43.4 119.04C38.3867 119.04 33.9067 120.107 29.96 122.24C26.0133 124.267 22.76 127.147 20.2 130.88L0.84 119.52C5.10667 113.013 11.0267 107.84 18.6 104C26.1733 100.053 35.3467 98.08 46.12 98.08C54.12 98.08 61.16 99.2533 67.24 101.6C73.32 103.84 78.0667 107.147 81.48 111.52C85 115.893 86.76 121.28 86.76 127.68C86.76 131.84 86.12 135.52 84.84 138.72C83.56 141.92 81.9067 144.693 79.88 147.04C77.8533 149.387 75.6667 151.573 73.32 153.6C71.08 155.627 68.9467 157.6 66.92 159.52C64.8933 161.44 63.1867 163.467 61.8 165.6C60.52 167.733 59.88 170.24 59.88 173.12H35.72ZM47.88 213.28C43.4 213.28 39.72 211.84 36.84 208.96C33.96 206.08 32.52 202.667 32.52 198.72C32.52 194.667 33.96 191.307 36.84 188.64C39.72 185.867 43.4 184.48 47.88 184.48C52.4667 184.48 56.1467 185.867 58.92 188.64C61.8 191.307 63.24 194.667 63.24 198.72C63.24 202.667 61.8 206.08 58.92 208.96C56.1467 211.84 52.4667 213.28 47.88 213.28ZM108.03 173.12L103.07 100H132.83L127.87 173.12H108.03ZM117.95 213.28C113.47 213.28 109.79 211.84 106.91 208.96C104.03 206.08 102.59 202.667 102.59 198.72C102.59 194.667 104.03 191.307 106.91 188.64C109.79 185.867 113.47 184.48 117.95 184.48C122.537 184.48 126.217 185.867 128.99 188.64C131.87 191.307 133.31 194.667 133.31 198.72C133.31 202.667 131.87 206.08 128.99 208.96C126.217 211.84 122.537 213.28 117.95 213.28Z" fill="#333333"/>
</svg>
